<svg width="40" height="40" viewBox="0 0 40 40" fill="none" xmlns="http://www.w3.org/2000/svg">
<path d="M20.1481 0H20.036C17.5779 0.129387 14.3637 1.82582 13.3891 6.17322C13.2683 6.66489 13.1821 7.1623 13.1016 7.63959C12.9118 8.76382 12.7307 9.82479 12.0695 10.7679C10.7843 12.6368 8.27163 12.9991 8.11063 13.0221C8.148 13.0853 8.18537 13.1486 8.22849 13.2147L8.24574 13.2435C8.45562 13.5943 8.69999 13.9393 8.95874 14.3044C9.13411 14.5517 9.31236 14.8076 9.49061 15.0721C10.7297 14.7271 12.6933 13.922 13.9583 12.079C14.9099 10.7219 15.1543 9.28998 15.3699 8.02487C15.4475 7.56483 15.5223 7.13065 15.6229 6.71949V6.68786C16.4998 2.74013 19.4725 2.33759 20.1251 2.30021C22.382 2.30021 23.7131 4.60045 24.0207 5.20425C24.2191 5.07199 24.4232 4.93686 24.6388 4.81034C25.0816 4.52893 25.5437 4.2791 26.0217 4.06275C25.4783 2.99603 23.5894 0 20.1481 0Z" fill="white"/>
<path d="M6.3827 16.1385C7.04107 17.0672 7.66494 17.9471 7.86331 19.077C8.27731 21.3111 6.75932 23.341 6.6587 23.4733L6.8772 23.5279H6.9117C7.30557 23.6286 7.71956 23.6976 8.15655 23.7723C8.45843 23.8241 8.76892 23.8787 9.08517 23.9391C9.71766 22.8206 10.5227 20.8597 10.1288 18.6659C9.84129 17.0327 9.0018 15.8481 8.25718 14.8015C7.98693 14.4191 7.73394 14.0597 7.51544 13.6974L7.49819 13.6715C5.32759 10.2586 7.14745 7.87212 7.57869 7.38333C9.1743 5.77606 11.7531 6.46613 12.3971 6.67315C12.4431 6.43738 12.492 6.19873 12.5524 5.95721C12.6674 5.44599 12.8182 4.94351 13.0038 4.45345C11.8538 4.09405 8.35206 3.30332 5.91696 5.79042L5.88533 5.8278C4.23798 7.65647 3.16274 11.1298 5.55183 14.8935C5.81058 15.3334 6.10096 15.7417 6.3827 16.1385Z" fill="white"/>
<path d="M12.081 26.0416C10.724 25.0899 9.28936 24.8484 8.02725 24.6327C7.56438 24.5551 7.13026 24.4803 6.72202 24.3768H6.6904C2.74307 23.497 2.34057 20.524 2.30032 19.8713C2.30032 17.6085 4.60029 16.2743 5.20691 15.9638C5.07179 15.7654 4.93954 15.5612 4.81016 15.3485C4.52916 14.9059 4.28031 14.4437 4.06555 13.9655C2.99319 14.5405 -0.0370319 16.4382 0.000342664 19.923V19.969C0.129716 22.4303 1.82307 25.6448 6.1729 26.6167C6.66452 26.7403 7.15901 26.8237 7.63625 26.9042C8.76324 27.0968 9.8241 27.278 10.7642 27.9364C12.6329 29.2245 12.9981 31.7317 13.0182 31.8985L13.2108 31.7806L13.2424 31.7605C13.5932 31.5506 13.9353 31.3091 14.3004 31.0503C14.5477 30.8749 14.8035 30.6938 15.068 30.5155C14.7288 29.2734 13.9181 27.3067 12.081 26.0416Z" fill="white"/>
<path d="M18.6701 29.8752C17.04 30.1627 15.8527 31.0023 14.8062 31.7441C14.4267 32.0144 14.0673 32.2703 13.7051 32.4859L13.6763 32.5032C10.2666 34.674 7.88037 32.8568 7.38875 32.4226C5.78452 30.8298 6.47451 28.2506 6.68151 27.6037C6.44576 27.5615 6.20714 27.5098 5.96564 27.4485C5.45319 27.3348 4.9497 27.1839 4.45916 26.997C4.10266 28.1471 3.30917 31.6492 5.79889 34.0846L5.83339 34.1191C7.10497 35.236 8.74094 35.8496 10.4333 35.8442C12.0233 35.8202 13.5725 35.338 14.8953 34.4555C15.3294 34.1938 15.7405 33.9034 16.1344 33.6245C17.0659 32.9632 17.9428 32.3393 19.0755 32.1409C21.3065 31.7297 23.3391 33.2479 23.4684 33.3485C23.4886 33.2766 23.5058 33.2047 23.5231 33.13V33.0955C23.6237 32.6958 23.6927 32.2789 23.7674 31.8361C23.8192 31.5486 23.8709 31.2323 23.9342 30.9189C22.8273 30.2863 20.8666 29.4698 18.6701 29.8752Z" fill="white"/>
<path d="M31.7714 26.7853L31.7541 26.7566C31.5443 26.4058 31.2999 26.0607 31.0412 25.6956C30.8658 25.4483 30.6847 25.1924 30.5093 24.9279C29.2702 25.2729 27.3066 26.078 26.0416 27.9211C25.09 29.2782 24.8456 30.7101 24.63 31.9752C24.5524 32.4352 24.4776 32.8694 24.3741 33.2805V33.3122C23.4972 37.2599 20.5245 37.6595 19.8719 37.6998C17.6122 37.6998 16.2724 35.3996 15.9648 34.7929C15.7636 34.928 15.5595 35.0632 15.3467 35.1897C14.9037 35.4708 14.4405 35.7188 13.961 35.9315C14.5216 36.9954 16.4104 40 19.8575 40H19.9697C22.4278 39.8706 25.642 38.1742 26.6166 33.8239C26.7373 33.3323 26.8236 32.8377 26.9041 32.3604C27.0938 31.2362 27.2749 30.1724 27.9362 29.2322C29.2213 27.3632 31.734 27.001 31.895 26.978C31.8605 26.9147 31.8145 26.8514 31.7714 26.7853Z" fill="white"/>
<path d="M34.4481 25.1013C34.1893 24.6671 33.899 24.2588 33.6172 23.8621C32.9589 22.9333 32.335 22.0535 32.1366 20.9206C31.7226 18.6894 33.2406 16.6566 33.3412 16.5273L33.1227 16.4726H33.0882C32.6944 16.3749 32.2804 16.3059 31.8434 16.2311C31.5415 16.1793 31.231 16.1247 30.9148 16.0643C30.2823 17.1828 29.4773 19.1437 29.8711 21.3376C30.1586 22.9707 30.9981 24.1553 31.7427 25.2019C32.0101 25.5843 32.266 25.9437 32.4845 26.306L32.5017 26.3319C34.6723 29.7448 32.8525 32.1313 32.4212 32.6201C30.8256 34.2274 28.2468 33.5373 27.6028 33.3303C27.5568 33.566 27.5079 33.8047 27.4475 34.0462C27.3321 34.5573 27.1813 35.0598 26.9962 35.55C27.8589 35.8153 28.7558 35.9528 29.6584 35.9583C30.4759 35.984 31.29 35.8425 32.0508 35.5424C32.8116 35.2422 33.5032 34.7899 34.083 34.213L34.1146 34.1756C35.762 32.3383 36.8372 28.865 34.4481 25.1013Z" fill="white"/>
<path d="M39.9968 20.0354C39.8674 17.5771 38.1741 14.3626 33.8242 13.3907C33.3326 13.2671 32.8381 13.1837 32.3609 13.1032C31.2339 12.9105 30.173 12.7294 29.2329 12.071C27.3642 10.7829 26.9991 8.27275 26.9789 8.10886L26.7863 8.22676L26.7576 8.24399C26.4039 8.45676 26.0589 8.70116 25.691 8.96281C25.4466 9.13532 25.1907 9.31358 24.9291 9.49184C25.2712 10.7282 26.0791 12.692 27.9191 13.96C29.276 14.9117 30.7106 15.1533 31.9728 15.3689C32.4356 15.4465 32.8697 15.5213 33.278 15.6248H33.3096C37.2569 16.5046 37.6594 19.4776 37.6997 20.1274C37.6997 22.3931 35.3997 23.7273 34.7931 24.0378C34.9282 24.2362 35.0605 24.4404 35.1898 24.6531C35.4708 25.0957 35.7197 25.5579 35.9345 26.0361C37.0068 25.4611 40.037 23.5634 39.9997 20.0786L39.9968 20.0354Z" fill="white"/>
<path d="M32.6108 7.57882C34.215 9.17172 33.525 11.7508 33.318 12.3949C33.5538 12.4409 33.7924 12.4926 34.0339 12.553C34.5467 12.6654 35.0503 12.8163 35.5404 13.0044C35.8969 11.8543 36.6904 8.35226 34.2006 5.91691L34.1661 5.88241C32.3348 4.23488 28.8647 3.1624 25.1014 5.54887C24.6672 5.81052 24.2561 6.10092 23.8622 6.37982C22.9308 7.04113 22.051 7.66508 20.9212 7.86347C18.6902 8.27463 16.6576 6.75647 16.5282 6.65584C16.5081 6.72772 16.4908 6.7996 16.4736 6.87436V6.90886C16.373 7.30852 16.304 7.72544 16.2292 8.16823C16.1775 8.45575 16.1257 8.77205 16.0625 9.08546C17.1808 9.71801 19.1444 10.5231 21.338 10.1263C22.9681 9.83877 24.1555 8.9992 25.202 8.25738C25.5815 7.9871 25.9409 7.73118 26.3031 7.51554L26.3318 7.4983C29.7358 5.32748 32.1192 7.14466 32.6108 7.57882Z" fill="white"/>
</svg>
